<?xml version="1.0" encoding="utf-8"?>
<!-- Generator: Adobe Illustrator 17.1.0, SVG Export Plug-In . SVG Version: 6.00 Build 0)  -->
<!DOCTYPE svg PUBLIC "-//W3C//DTD SVG 1.1//EN" "http://www.w3.org/Graphics/SVG/1.1/DTD/svg11.dtd">
<svg version="1.1" id="Layer_1" xmlns="http://www.w3.org/2000/svg" xmlns:xlink="http://www.w3.org/1999/xlink" x="0px" y="0px"
	 viewBox="0 0 45 10" enable-background="new 0 0 45 10" xml:space="preserve">
<g>
	
		<linearGradient id="SVGID_1_" gradientUnits="userSpaceOnUse" x1="-2.855813e-10" y1="1.145963e-10" x2="1" y2="1.145963e-10" gradientTransform="matrix(6.734489e-10 10 -15 4.489659e-10 7.5 0)">
		<stop  offset="0" style="stop-color:#65ACDE"/>
		<stop  offset="1" style="stop-color:#3A8FCD"/>
	</linearGradient>
	<path fill="url(#SVGID_1_)" d="M5.3,6.2L2.7,3.8c-0.6-0.5-1.7-0.5-2.3,0s-0.6,1.4,0,1.9l3.7,3.3L5.3,10l1.1-0.9l8.1-6.7
		c0.6-0.5,0.7-1.4,0-1.9c-0.6-0.5-1.6-0.6-2.3,0L5.3,6.2z"/>
	
		<linearGradient id="SVGID_2_" gradientUnits="userSpaceOnUse" x1="-1.854933e-07" y1="8.995357e-08" x2="1" y2="8.995357e-08" gradientTransform="matrix(6.734489e-10 10 -15 4.489659e-10 22.5 0)">
		<stop  offset="0" style="stop-color:#D6E4F5"/>
		<stop  offset="1" style="stop-color:#CBDAF0"/>
	</linearGradient>
	<path fill="url(#SVGID_2_)" d="M28.4,0c-0.4,0-0.8,0.1-1.1,0.4l-7,5.9l-2.6-2.5c-0.3-0.3-0.7-0.4-1.1-0.4c-0.4,0-0.8,0.1-1.1,0.4
		c-0.6,0.5-0.6,1.4,0,1.9l3.7,3.3l1.1,0.9l1.1-0.9l8.1-6.7c0.6-0.5,0.7-1.4,0-1.9C29.2,0.1,28.8,0,28.4,0"/>
	
		<linearGradient id="SVGID_3_" gradientUnits="userSpaceOnUse" x1="-2.874003e-10" y1="-7.820745e-09" x2="1" y2="-7.820745e-09" gradientTransform="matrix(6.734489e-10 10 -15 4.489659e-10 37.5 0)">
		<stop  offset="0" style="stop-color:#A6AAAD"/>
		<stop  offset="1" style="stop-color:#919599"/>
	</linearGradient>
	<path fill="url(#SVGID_3_)" d="M35.3,6.2l-2.6-2.5c-0.6-0.5-1.7-0.5-2.3,0s-0.6,1.4,0,1.9l3.7,3.3l1.1,0.9l1.1-0.9l8.1-6.7
		c0.6-0.5,0.7-1.4,0-1.9s-1.6-0.6-2.3,0L35.3,6.2z"/>
</g>
</svg>
